HIERARCHY
ROOT Hips
{
	OFFSET 0.000000 0.000000 0.000000
	CHANNELS 6 Xposition Yposition Zposition Zrotation Yrotation Xrotation 
	JOINT LHipJoint
	{
		OFFSET 0.000000 0.000000 0.000000
		CHANNELS 3 Zrotation Yrotation Xrotation
		JOINT LeftUpLeg
		{
			OFFSET 1.363060 -1.794630 0.839290
			CHANNELS 3 Zrotation Yrotation Xrotation
			JOINT LeftLeg
			{
				OFFSET 2.448110 -6.726130 0.000000
				CHANNELS 3 Zrotation Yrotation Xrotation
				JOINT LeftFoot
				{
					OFFSET 2.562200 -7.039590 0.000000
					CHANNELS 3 Zrotation Yrotation Xrotation
					JOINT LeftToeBase
					{
						OFFSET 0.157640 -0.433110 2.322550
						CHANNELS 3 Zrotation Yrotation Xrotation
						End Site
						{
							OFFSET 0.000000 0.000000 0.000000
						}
					}
				}
			}
		}
	}
	JOINT RHipJoint
	{
		OFFSET 0.000000 0.000000 0.000000
		CHANNELS 3 Zrotation Yrotation Xrotation
		JOINT RightUpLeg
		{
			OFFSET -1.305520 -1.794630 0.839290
			CHANNELS 3 Zrotation Yrotation Xrotation
			JOINT RightLeg
			{
				OFFSET -2.542530 -6.985550 0.000000
				CHANNELS 3 Zrotation Yrotation Xrotation
				JOINT RightFoot
				{
					OFFSET -2.568260 -7.056230 0.000000
					CHANNELS 3 Zrotation Yrotation Xrotation
					JOINT RightToeBase
					{
						OFFSET -0.164730 -0.452590 2.363150
						CHANNELS 3 Zrotation Yrotation Xrotation
						End Site
						{
							OFFSET 0.000000 0.000000 0.000000
						}
					}
				}
			}
		}
	}
	JOINT LowerBack
	{
		OFFSET 0.000000 0.000000 0.000000
		CHANNELS 3 Zrotation Yrotation Xrotation
		JOINT Spine
		{
			OFFSET 0.028270 2.035590 -0.193380
			CHANNELS 3 Zrotation Yrotation Xrotation
			JOINT Spine1
			{
				OFFSET 0.056720 2.048850 -0.042750
				CHANNELS 3 Zrotation Yrotation Xrotation
				JOINT Neck
				{
					OFFSET 0.000000 0.000000 0.000000
					CHANNELS 3 Zrotation Yrotation Xrotation
					JOINT Neck1
					{
						OFFSET -0.054170 1.746240 0.172020
						CHANNELS 3 Zrotation Yrotation Xrotation
						JOINT Head
						{
							OFFSET 0.104070 1.761360 -0.123970
							CHANNELS 3 Zrotation Yrotation Xrotation
							End Site
							{
								OFFSET 0.000000 0.000000 0.000000
							}
						}
					}
				}
				JOINT LeftShoulder
				{
					OFFSET 0.000000 0.000000 0.000000
					CHANNELS 3 Zrotation Yrotation Xrotation
					JOINT LeftArm
					{
						OFFSET 3.362410 1.200890 -0.311210
						CHANNELS 3 Zrotation Yrotation Xrotation
						JOINT LeftForeArm
						{
							OFFSET 4.983000 -0.000000 -0.000000
							CHANNELS 3 Zrotation Yrotation Xrotation
							JOINT LeftHand
							{
								OFFSET 3.483560 -0.000000 -0.000000
								CHANNELS 3 Zrotation Yrotation Xrotation
								JOINT LeftFingerBase
								{
									OFFSET 0.000000 0.000000 0.000000
									CHANNELS 3 Zrotation Yrotation Xrotation
									JOINT LeftHandIndex1
									{
										OFFSET 0.715260 -0.000000 -0.000000
										CHANNELS 3 Zrotation Yrotation Xrotation
										End Site
										{
											OFFSET 0.000000 0.000000 0.000000
										}
									}
								}
								JOINT LThumb
								{
									OFFSET 0.000000 0.000000 0.000000
									CHANNELS 3 Zrotation Yrotation Xrotation
									End Site
									{
										OFFSET 0.000000 0.000000 0.000000
									}
								}
							}
						}
					}
				}
				JOINT RightShoulder
				{
					OFFSET 0.000000 0.000000 0.000000
					CHANNELS 3 Zrotation Yrotation Xrotation
					JOINT RightArm
					{
						OFFSET -3.136600 1.374050 -0.404650
						CHANNELS 3 Zrotation Yrotation Xrotation
						JOINT RightForeArm
						{
							OFFSET -5.241900 -0.000000 -0.000000
							CHANNELS 3 Zrotation Yrotation Xrotation
							JOINT RightHand
							{
								OFFSET -3.444170 -0.000000 -0.000000
								CHANNELS 3 Zrotation Yrotation Xrotation
								JOINT RightFingerBase
								{
									OFFSET 0.000000 0.000000 0.000000
									CHANNELS 3 Zrotation Yrotation Xrotation
									JOINT RightHandIndex1
									{
										OFFSET -0.622530 -0.000000 -0.000000
										CHANNELS 3 Zrotation Yrotation Xrotation
										End Site
										{
											OFFSET 0.000000 0.000000 0.000000
										}
									}
								}
								JOINT RThumb
								{
									OFFSET 0.000000 0.000000 0.000000
									CHANNELS 3 Zrotation Yrotation Xrotation
									End Site
									{
										OFFSET 0.000000 0.000000 0.000000
									}
								}
							}
						}
					}
				}
			}
		}
	}
}
MOTION
Frames: 12
Frame Time: 0.008333
5.081458 16.498806 -6.812506 -174.973240 28.967912 -168.860833 -13.932538 5.174850 -0.311036 -5.678491 9.562313 -0.685029 -0.483328 3.045306 40.609177 0.330531 -15.582085 19.389048 -6.741800 -0.000000 -65.640800 6.605175 -0.497774 2.572503 13.953507 9.357360 -36.278816 1.899927 -1.994397 35.110544 -0.838299 -2.786545 -5.461070 -0.444099 -0.000000 -33.353700 9.401495 -6.678458 -2.882030 1.749666 -7.363868 -3.777016 -5.400112 -7.505984 -0.919796 11.480892 -20.878401 -9.096011 -2.677090 -0.194754 -0.303775 0.000000 0.000000 0.000000 12.651610 -5.713196 -1.848311 -38.377975 -17.053640 0.821200 178.336304 -74.262014 179.877666 10.861183 -1.453172 -0.202957 -0.096064 0.672373 -0.000000 0.000000 0.000000 0.000000 0.000000 0.000000 0.000000 13.446543 -19.854786 2.080595 59.346282 -26.840374 6.468681 2.016710 59.314220 -0.003227 0.448538 -2.932700 -0.008737 0.085216 -0.001215 0.000000 0.000000 0.000000 0.000000 0.000000 0.000000 0.000000 
5.157399 16.444378 -6.947906 -174.609486 28.280915 -169.215120 -14.188031 5.134281 -0.556284 -4.336390 10.746399 -2.036063 -0.286177 3.238951 44.216089 0.503764 -15.250359 20.936302 -7.088100 -0.000000 -63.374500 6.575553 -0.530204 2.280033 14.667214 8.592351 -36.040745 1.819499 -2.142227 37.362794 -0.951890 -3.004047 -7.019203 -0.298500 0.000001 -33.303100 9.853417 -6.677529 -2.468130 1.778133 -7.387810 -3.751268 -5.658496 -7.541723 -1.134597 11.704073 -20.335281 -9.018138 -2.960168 -0.219254 -0.283505 0.000000 0.000000 0.000000 11.846132 -6.218957 -1.631287 -39.577078 -15.722108 1.185115 178.418936 -74.641256 179.877817 11.004126 -1.638577 -0.223295 -0.107324 0.669046 0.000000 0.000000 0.000000 0.000000 0.000000 0.000000 0.000000 14.635728 -19.362083 2.100069 58.636062 -25.185533 6.729567 2.034825 58.796818 -0.003498 -0.256345 -2.979916 0.009589 0.089440 -0.004703 0.000000 0.000000 0.000000 0.000000 0.000000 0.000000 0.000000 
5.228402 16.390441 -7.078542 -174.161618 27.612737 -169.549831 -14.447973 5.053568 -0.819257 -2.941790 11.865554 -3.431654 -0.090307 3.447428 47.860283 0.680836 -14.303153 22.218092 -7.074400 -0.000000 -60.479900 6.514707 -0.583117 1.959919 15.508277 7.738177 -35.656487 1.770728 -2.267151 39.330105 -1.051544 -3.173007 -8.490981 -0.147000 0.000001 -33.396700 10.350961 -6.661006 -1.992127 1.806201 -7.395684 -3.720864 -5.937957 -7.563591 -1.381033 11.967400 -19.680432 -8.904831 -3.252796 -0.244473 -0.255639 0.000000 0.000000 0.000000 10.996473 -6.755583 -1.393705 -40.833436 -14.339958 1.495540 178.502757 -75.202627 179.877964 11.194212 -1.784030 -0.240944 -0.118587 0.662875 -0.000000 0.000000 0.000000 0.000000 0.000000 0.000000 0.000000 15.896037 -18.775105 2.140571 57.968073 -23.426868 6.881099 2.058075 58.131491 -0.004045 -1.067543 -3.116002 0.032107 0.093960 -0.007951 0.000000 0.000000 0.000000 0.000000 0.000000 0.000000 0.000000 
5.294780 16.337789 -7.204695 -173.634103 26.980632 -169.856044 -14.708613 4.933424 -1.096512 -1.516177 12.923009 -4.874673 0.106300 3.675927 51.510137 0.858814 -12.712261 23.118790 -6.635400 0.000000 -57.019900 6.420490 -0.658153 1.626394 16.455318 6.838568 -35.131519 1.752932 -2.369472 40.990845 -1.135661 -3.276621 -9.873624 0.006000 -0.000000 -33.539100 10.888975 -6.624232 -1.471462 1.835101 -7.382176 -3.686079 -6.228737 -7.565674 -1.646585 12.259030 -18.924241 -8.760563 -3.544522 -0.269319 -0.221527 0.000000 0.000000 0.000000 10.096589 -7.273586 -1.136992 -42.150228 -12.965933 1.759803 178.588537 -76.010553 179.878195 11.424285 -1.897588 -0.256518 -0.129306 0.653799 0.000000 0.000000 0.000000 0.000000 0.000000 0.000000 0.000000 17.186587 -18.106510 2.198111 57.354938 -21.547882 6.930500 2.085884 57.312583 -0.004837 -1.950227 -3.318788 0.059717 0.098305 -0.011187 0.000000 0.000000 0.000000 0.000000 0.000000 0.000000 0.000000 
5.357557 16.287452 -7.326298 -173.056960 26.398194 -170.143421 -14.957744 4.777498 -1.382549 -0.112114 13.909275 -6.348712 0.307073 3.926385 55.114728 1.037039 -10.505778 23.553913 -5.769500 0.000000 -53.375901 6.302494 -0.751346 1.289252 17.457930 5.918455 -34.476575 1.762119 -2.451141 42.351096 -1.202280 -3.295213 -11.172473 0.155800 0.000000 -33.640800 11.434518 -6.566944 -0.919620 1.859570 -7.344777 -3.647921 -6.525106 -7.544153 -1.928495 12.573845 -18.068727 -8.580774 -3.830569 -0.293313 -0.179742 0.000000 0.000000 0.000000 9.159407 -7.776069 -0.864183 -43.529448 -11.580930 1.962617 178.675933 -77.089642 179.878667 11.688366 -1.976104 -0.269228 -0.138866 0.641258 0.000000 0.000000 0.000000 0.000000 0.000000 0.000000 0.000000 18.491093 -17.357588 2.268244 56.795850 -19.566249 6.888448 2.115460 56.367676 -0.005842 -2.881612 -3.560635 0.093021 0.102160 -0.014672 0.000000 0.000000 0.000000 0.000000 0.000000 0.000000 0.000000 
5.418020 16.240440 -7.443483 -172.461736 25.874042 -170.418266 -15.184718 4.590891 -1.671863 1.223841 14.820305 -7.847966 0.516268 4.198095 58.634497 1.215061 -7.779499 23.449053 -4.543799 0.000000 -49.710900 6.171349 -0.857437 0.959612 18.466689 5.006978 -33.709413 1.793420 -2.514315 43.427438 -1.252426 -3.227630 -12.391650 0.297000 0.000000 -33.629100 11.955820 -6.489509 -0.353358 1.876055 -7.282107 -3.605800 -6.817588 -7.495892 -2.213741 12.905802 -17.132112 -8.372578 -4.103817 -0.315686 -0.132074 0.000000 0.000000 0.000000 8.203174 -8.229123 -0.581868 -44.985290 -10.219175 2.097331 178.763689 -78.483804 179.879361 11.994611 -2.014086 -0.278686 -0.147017 0.624940 0.000000 0.000000 0.000000 0.000000 0.000000 0.000000 0.000000 19.787950 -16.545217 2.342553 56.292627 -17.477623 6.770901 2.143995 55.318237 -0.007011 -3.837115 -3.804523 0.130916 0.105308 -0.018685 0.000000 0.000000 0.000000 0.000000 0.000000 0.000000 0.000000 
5.476732 16.197691 -7.557104 -171.855216 25.411650 -170.669081 -15.387348 4.377699 -1.958518 2.473652 15.659267 -9.383702 0.737711 4.488783 62.040549 1.390689 -4.697526 22.740743 -3.090600 0.000000 -45.974000 6.029385 -0.973243 0.651848 19.458674 4.151052 -32.850316 1.843071 -2.560617 44.232307 -1.291817 -3.102244 -13.525955 0.425100 -0.000000 -33.464500 12.444656 -6.390557 0.203937 1.887167 -7.193151 -3.558786 -7.093126 -7.418119 -2.479441 13.240335 -16.147460 -8.154977 -4.354938 -0.335469 -0.083561 0.000000 0.000000 0.000000 7.243980 -8.565798 -0.299268 -46.543522 -8.959537 2.165219 178.848372 -80.250929 179.880089 12.366564 -2.004806 -0.284193 -0.153916 0.604870 0.000000 0.000000 0.000000 0.000000 0.000000 0.000000 0.000000 21.037183 -15.696471 2.410777 55.855638 -15.252353 6.592120 2.169361 54.174197 -0.008282 -4.788406 -4.005827 0.170903 0.107672 -0.023508 0.000000 0.000000 0.000000 0.000000 0.000000 0.000000 0.000000 
5.535227 16.160312 -7.667255 -171.278076 25.009824 -170.907482 -15.552827 4.146595 -2.235666 3.581194 16.414608 -10.950399 0.972298 4.791111 65.290234 1.561501 -1.446199 21.429202 -1.576201 -0.000000 -42.274200 5.893898 -1.090166 0.372883 20.378378 3.364998 -31.926358 1.903807 -2.592782 44.804185 -1.323651 -2.937187 -14.577815 0.538200 0.000000 -33.132300 12.858085 -6.274308 0.736195 1.886297 -7.080747 -3.508882 -7.347636 -7.312044 -2.723431 13.575137 -15.125460 -7.927308 -4.584759 -0.352837 -0.033461 0.000000 0.000000 0.000000 6.319621 -8.806780 -0.023526 -48.218728 -7.756211 2.129740 178.925971 -82.374567 179.880759 12.830911 -1.920402 -0.282556 -0.159506 0.580397 0.000000 0.000000 0.000000 0.000000 0.000000 0.000000 0.000000 22.242107 -14.812458 2.466564 55.471177 -12.923823 6.374693 2.187377 52.994786 -0.009630 -5.720181 -4.135227 0.209686 0.109356 -0.029229 0.000000 0.000000 0.000000 0.000000 0.000000 0.000000 0.000000 
5.594242 16.129199 -7.774706 -170.744672 24.664255 -171.126039 -15.678066 3.904199 -2.496412 4.522469 17.081541 -12.560275 1.218046 5.096833 68.352581 1.722854 1.768607 19.540935 -0.174600 0.000000 -38.536900 5.771542 -1.203112 0.131833 21.203167 2.679054 -30.965587 1.970084 -2.612617 45.172456 -1.354600 -2.773283 -15.542401 0.637500 0.000000 -32.651000 13.182288 -6.142356 1.222857 1.874117 -6.947420 -3.456347 -7.572607 -7.179149 -2.928927 13.898738 -14.097631 -7.705850 -4.789829 -0.367525 0.014151 0.000000 0.000000 0.000000 5.457048 -8.913675 0.236814 -50.028849 -6.649414 1.975666 178.992754 -84.865215 179.881096 13.431597 -1.740145 -0.271073 -0.164155 0.551644 0.000000 0.000000 0.000000 0.000000 0.000000 0.000000 0.000000 23.382035 -13.913122 2.502031 55.138384 -10.481850 6.145578 2.195746 51.812753 -0.011023 -6.610132 -4.162077 0.242867 0.110556 -0.035911 0.000000 0.000000 0.000000 0.000000 0.000000 0.000000 0.000000 
5.654445 16.105141 -7.880085 -170.269774 24.367234 -171.318774 -15.760537 3.657175 -2.733478 5.275051 17.652147 -14.224517 1.469021 5.395854 71.196053 1.869305 4.761061 17.148490 0.969500 0.000001 -34.720299 5.668943 -1.307443 -0.065179 21.915880 2.113535 -29.996814 2.036330 -2.621788 45.369277 -1.390678 -2.650329 -16.415407 0.727100 -0.000000 -32.062900 13.405245 -5.996693 1.646071 1.850790 -6.796407 -3.402068 -7.762365 -7.022347 -3.083539 14.200989 -13.096198 -7.504543 -4.969289 -0.379580 0.055893 0.000000 0.000000 0.000000 4.681433 -8.867957 0.474696 -51.980993 -5.653843 1.682745 179.046653 -87.703088 179.880881 14.216474 -1.446286 -0.245943 -0.168127 0.518947 0.000000 0.000000 0.000000 0.000000 0.000000 0.000000 0.000000 24.444217 -13.018486 2.512314 54.850319 -7.920404 5.946116 2.192852 50.666585 -0.012453 -7.440553 -4.069437 0.266349 0.111576 -0.043520 0.000000 0.000000 0.000000 0.000000 0.000000 0.000000 0.000000 
5.716217 16.088698 -7.983975 -169.864436 24.108534 -171.481113 -15.799002 3.411724 -2.939432 5.821003 18.115135 -15.951252 1.715865 5.677424 73.791556 1.994904 7.384404 14.358062 1.764300 0.000000 -30.797900 5.591679 -1.399699 -0.215319 22.505502 1.677055 -29.046460 2.097770 -2.621698 45.426050 -1.436504 -2.601234 -17.194576 0.812300 -0.000000 -31.424500 13.518926 -5.839277 1.991727 1.816193 -6.631049 -3.347731 -7.914446 -6.845584 -3.180644 14.470454 -12.138521 -7.331095 -5.123988 -0.389268 0.090072 0.000000 0.000000 0.000000 4.010204 -8.661159 0.687692 -54.064079 -4.774955 1.237445 -0.911289 -89.151414 -0.119968 15.229426 -1.036073 -0.203460 -0.171542 0.483046 0.000000 0.000000 0.000000 0.000000 0.000000 0.000000 0.000000 25.417176 -12.132821 2.495543 54.607681 -5.257333 5.801275 2.177396 49.599486 -0.013896 -8.185240 -3.850366 0.276134 0.112614 -0.052026 0.000000 0.000000 0.000000 0.000000 0.000000 0.000000 0.000000 
5.779724 16.080272 -8.086975 -169.534571 23.876476 -171.608573 -15.794720 3.172611 -3.107483 6.154329 18.459737 -17.744966 1.946873 5.931628 76.113275 2.093541 9.537977 11.296182 2.179100 0.000000 -26.770900 5.541922 -1.478343 -0.318305 22.971728 1.370062 -28.134584 2.151095 -2.613233 45.366774 -1.495133 -2.649849 -17.877277 0.898800 0.000000 -30.800800 13.524434 -5.671472 2.250053 1.771228 -6.454233 -3.295097 -8.027824 -6.653008 -3.216953 14.695224 -11.243159 -7.191485 -5.255147 -0.396899 0.115410 0.000000 0.000000 0.000000 3.448556 -8.297806 0.876284 -56.251032 -4.002894 0.633548 -0.877298 -85.763065 -0.121260 16.494520 -0.529547 -0.140921 -0.174124 0.444988 0.000000 0.000000 0.000000 0.000000 0.000000 0.000000 0.000000 26.288711 -11.264600 2.453021 54.406429 -2.506319 5.751694 2.149063 48.650442 -0.015339 -8.825478 -3.510527 0.270125 0.113879 -0.061392 -0.000000 0.000000 0.000000 0.000000 0.000000 0.000000 0.000000 
